<svg width="211" height="188" viewBox="0 0 211 188" fill="none" xmlns="http://www.w3.org/2000/svg">
<path d="M209.055 86.7554L187.556 67.7241V17.625C187.556 16.0669 186.938 14.5725 185.839 13.4707C184.74 12.369 183.249 11.75 181.694 11.75H158.25C156.696 11.75 155.205 12.369 154.106 13.4707C153.006 14.5725 152.389 16.0669 152.389 17.625V36.5976L115.31 3.78203C113.01 1.69273 108.625 0 105.5 0C102.375 0 98.0051 1.69273 95.7046 3.78203L1.92684 86.7664C0.771403 87.9366 0.085602 89.4918 0 91.1359C0.0748644 92.572 0.599082 93.948 1.49825 95.0685L9.34115 103.804C10.5635 104.903 12.1029 105.585 13.737 105.75C15.1537 105.608 16.5063 105.087 17.6529 104.241L23.4774 99.1002V176.25C23.4774 179.366 24.7124 182.355 26.9108 184.559C29.1091 186.762 32.0907 188 35.1996 188H175.833C178.942 188 181.924 186.762 184.122 184.559C186.321 182.355 187.556 179.366 187.556 176.25V99.0966L193.384 104.237C194.535 105.082 195.891 105.604 197.311 105.75C198.93 105.58 200.453 104.897 201.659 103.8L209.502 95.0575C210.344 93.9076 210.861 92.5518 211 91.1323C210.832 89.5033 210.15 87.9703 209.055 86.7554ZM105.5 64.625C110.137 64.625 114.67 66.0033 118.525 68.5855C122.38 71.1677 125.385 74.8379 127.16 79.1319C128.934 83.426 129.399 88.1511 128.494 92.7096C127.589 97.2682 125.356 101.455 122.078 104.742C118.799 108.029 114.622 110.267 110.074 111.173C105.526 112.08 100.812 111.615 96.5282 109.836C92.2443 108.058 88.5828 105.045 86.0067 101.181C83.4305 97.3163 82.0556 92.7729 82.0556 88.125C82.0556 81.8924 84.5256 75.9151 88.9223 71.508C93.319 67.1009 99.2822 64.625 105.5 64.625ZM146.528 164.5H64.4722C62.9178 164.5 61.427 163.881 60.3278 162.779C59.2286 161.677 58.6111 160.183 58.6111 158.625C58.6111 149.276 62.3162 140.31 68.9112 133.699C75.5062 127.089 84.451 123.375 93.7778 123.375H117.222C126.549 123.375 135.494 127.089 142.089 133.699C148.684 140.31 152.389 149.276 152.389 158.625C152.389 160.183 151.771 161.677 150.672 162.779C149.573 163.881 148.082 164.5 146.528 164.5Z" fill="white"/>
</svg>
