<svg width="169" height="193" viewBox="0 0 169 193" fill="none" xmlns="http://www.w3.org/2000/svg">
<path d="M84.5 96.5C111.17 96.5 132.786 74.9006 132.786 48.25C132.786 21.5994 111.17 0 84.5 0C57.8297 0 36.2143 21.5994 36.2143 48.25C36.2143 74.9006 57.8297 96.5 84.5 96.5ZM120.639 108.789L102.607 180.938L90.5357 129.672L102.607 108.562H66.3929L78.4643 129.672L66.3929 180.938L48.3612 108.789C21.4645 110.07 0 132.047 0 159.225V174.906C0 184.896 8.11049 193 18.1071 193H150.893C160.89 193 169 184.896 169 174.906V159.225C169 132.047 147.535 110.07 120.639 108.789Z" fill="white"/>
</svg>
