<svg width="177" height="159" viewBox="0 0 177 159" fill="none" xmlns="http://www.w3.org/2000/svg">
<path d="M74.5564 0.375L92.1397 17.9583H167.625C169.957 17.9583 172.193 18.8846 173.842 20.5334C175.49 22.1821 176.417 24.4183 176.417 26.75V149.833C176.417 152.165 175.49 154.401 173.842 156.05C172.193 157.699 169.957 158.625 167.625 158.625H9.375C7.0433 158.625 4.8071 157.699 3.15835 156.05C1.50959 154.401 0.583328 152.165 0.583328 149.833V9.16667C0.583328 6.83497 1.50959 4.59878 3.15835 2.95002C4.8071 1.30126 7.0433 0.375 9.375 0.375H74.5564ZM97.2917 53.125H79.7083V105.875H123.667V88.2917H97.2917V53.125Z" fill="white"/>
</svg>
