<svg width="230" height="230" viewBox="0 0 230 230" fill="none" xmlns="http://www.w3.org/2000/svg">
<path d="M118.967 47.9167H201.25C203.792 47.9167 206.229 48.9263 208.026 50.7236C209.824 52.5208 210.833 54.9583 210.833 57.5V191.667C210.833 194.208 209.824 196.646 208.026 198.443C206.229 200.24 203.792 201.25 201.25 201.25H28.75C26.2083 201.25 23.7708 200.24 21.9735 198.443C20.1763 196.646 19.1667 194.208 19.1667 191.667V38.3333C19.1667 35.7917 20.1763 33.3541 21.9735 31.5569C23.7708 29.7597 26.2083 28.75 28.75 28.75H99.8008L118.967 47.9167ZM82.3304 132.336L72.8333 137.818L82.4167 154.407L91.9137 148.925C95.68 152.48 100.27 155.183 105.378 156.697V167.67H124.535V156.688C129.568 155.187 134.177 152.525 137.99 148.915L147.488 154.397L157.071 137.818L147.574 132.327C148.788 127.216 148.788 121.893 147.574 116.782L157.061 111.291L147.488 94.7121L137.981 100.194C134.168 96.5807 129.559 93.915 124.526 92.4121V81.4583H105.369V92.4217C100.336 93.9246 95.7265 96.5903 91.9137 100.203L82.4167 94.7121L72.8333 111.31L82.3304 116.792C81.1161 121.902 81.1161 127.226 82.3304 132.336ZM114.952 138.93C113.021 139 111.096 138.681 109.292 137.991C107.487 137.3 105.841 136.254 104.45 134.913C103.059 133.572 101.953 131.964 101.197 130.186C100.442 128.408 100.052 126.496 100.052 124.564C100.052 122.632 100.442 120.72 101.197 118.942C101.953 117.164 103.059 115.557 104.45 114.216C105.841 112.875 107.487 111.828 109.292 111.138C111.096 110.448 113.021 110.128 114.952 110.199C118.671 110.335 122.193 111.908 124.776 114.587C127.359 117.266 128.802 120.843 128.802 124.564C128.802 128.286 127.359 131.862 124.776 134.542C122.193 137.221 118.671 138.794 114.952 138.93Z" fill="white"/>
</svg>
