<svg width="244" height="49" viewBox="0 0 244 49" fill="none" xmlns="http://www.w3.org/2000/svg">
<path d="M3.61858 33.7065V0.456728H15.1403C19.1315 0.456728 22.1587 1.23317 24.2221 2.78604C26.2855 4.32369 27.3171 6.5845 27.3171 9.56846C27.3171 11.1975 26.903 12.6361 26.0746 13.8845C25.2462 15.1177 24.0941 16.0235 22.6181 16.6021C24.3049 17.0284 25.6303 17.8885 26.5942 19.1826C27.5732 20.4766 28.0627 22.06 28.0627 23.9326C28.0627 27.1297 27.0536 29.5503 25.0354 31.1945C23.0172 32.8388 20.1406 33.6761 16.4054 33.7065H3.61858ZM10.3961 19.2283V28.203H16.2021C17.7986 28.203 19.0411 27.8224 19.9297 27.0611C20.8334 26.2847 21.2852 25.219 21.2852 23.864C21.2852 20.8192 19.7264 19.2739 16.6087 19.2283H10.3961ZM10.3961 14.3869H15.4114C18.8302 14.326 20.5397 12.9482 20.5397 10.2535C20.5397 8.74635 20.1029 7.66542 19.2294 7.01078C18.3709 6.34091 17.0079 6.00598 15.1403 6.00598H10.3961V14.3869Z" fill="black"/>
<path d="M51.7386 26.8556H39.8555L37.5963 33.7065H30.3896L42.6342 0.456728H48.9147L61.2271 33.7065H54.0204L51.7386 26.8556ZM41.6854 21.3064H49.9087L45.7745 8.86053L41.6854 21.3064Z" fill="black"/>
<path d="M76.4764 21.5347H71.077V33.7065H64.2995V0.456728H76.5216C80.4073 0.456728 83.4045 1.33212 85.513 3.08292C87.6216 4.83371 88.6758 7.30765 88.6758 10.5047C88.6758 12.7732 88.1864 14.6686 87.2074 16.191C86.2435 17.6982 84.775 18.9009 82.802 19.7992L89.9184 33.3868V33.7065H82.6439L76.4764 21.5347ZM71.077 15.9855H76.5442C78.2461 15.9855 79.5639 15.5516 80.4977 14.6838C81.4315 13.8008 81.8984 12.5905 81.8984 11.0528C81.8984 9.48472 81.4541 8.25156 80.5655 7.35332C79.6919 6.45509 78.344 6.00598 76.5216 6.00598H71.077V15.9855Z" fill="black"/>
<path d="M112.42 26.8556H100.536L98.2773 33.7065H91.0705L103.315 0.456728H109.596L121.908 33.7065H114.701L112.42 26.8556ZM102.366 21.3064H110.59L106.455 8.86053L102.366 21.3064Z" fill="black"/>
<path d="M151.729 33.7065H144.951L131.758 11.8293V33.7065H124.98V0.456728H131.758L144.974 22.3797V0.456728H151.729V33.7065Z" fill="black"/>
<path d="M183.673 29.5046C182.453 30.9814 180.729 32.1308 178.5 32.9529C176.271 33.7598 173.801 34.1633 171.09 34.1633C168.243 34.1633 165.743 33.5391 163.59 32.2907C161.451 31.0271 159.794 29.2002 158.619 26.8099C157.46 24.4197 156.865 21.6109 156.835 18.3833V16.1225C156.835 12.8036 157.384 9.93384 158.484 7.51318C159.598 5.0773 161.195 3.21993 163.273 1.94109C165.367 0.647032 167.814 0 170.615 0C174.516 0 177.566 0.943905 179.765 2.83172C181.964 4.7043 183.267 7.43706 183.673 11.03H177.077C176.775 9.12695 176.105 7.73393 175.066 6.85092C174.042 5.96792 172.626 5.52641 170.819 5.52641C168.514 5.52641 166.76 6.40181 165.555 8.1526C164.35 9.90339 163.74 12.5067 163.725 15.9627V18.0864C163.725 21.5728 164.38 24.2066 165.691 25.9878C167.001 27.7691 168.921 28.6597 171.451 28.6597C173.997 28.6597 175.812 28.1116 176.896 27.0155V21.2835H170.728V16.2367H183.673V29.5046Z" fill="black"/>
<path d="M207.756 26.8556H195.873L193.614 33.7065H186.407L198.652 0.456728H204.932L217.244 33.7065H210.038L207.756 26.8556ZM197.703 21.3064H205.926L201.792 8.86053L197.703 21.3064Z" fill="black"/>
<path d="M228.269 15.4374L235.114 0.456728H242.524L231.726 21.6489V33.7065H224.835V21.6489L214.036 0.456728H221.469L228.269 15.4374Z" fill="black"/>
<path d="M3.23873 39.4357C4.43397 39.4357 5.34776 39.7709 5.98008 40.4413C6.62011 41.1116 6.94013 42.0626 6.94013 43.2942C6.94013 44.5258 6.62011 45.4767 5.98008 46.1471C5.34776 46.8174 4.43397 47.1526 3.23873 47.1526H0V39.4357H3.23873ZM3.04209 45.6326C3.68984 45.6326 4.16022 45.4378 4.45325 45.048C4.75399 44.6505 4.90436 44.0659 4.90436 43.2942C4.90436 42.5225 4.75399 41.9418 4.45325 41.552C4.16022 41.1545 3.68984 40.9557 3.04209 40.9557H1.9895V45.6326H3.04209Z" fill="black"/>
<path d="M6.99056 47.1526L9.67407 39.4357H12.0569L14.7288 47.1526H12.6815L12.161 45.4105H9.5237L8.99163 47.1526H6.99056ZM10.5185 42.1834L9.94011 44.0425H11.7445L11.1893 42.1951L10.8539 40.9791H10.8308L10.5185 42.1834Z" fill="black"/>
<path d="M18.624 39.4357C19.8193 39.4357 20.7331 39.7709 21.3654 40.4413C22.0054 41.1116 22.3254 42.0626 22.3254 43.2942C22.3254 44.5258 22.0054 45.4767 21.3654 46.1471C20.7331 46.8174 19.8193 47.1526 18.624 47.1526H15.3853V39.4357H18.624ZM18.4274 45.6326C19.0751 45.6326 19.5455 45.4378 19.8386 45.048C20.1393 44.6505 20.2897 44.0659 20.2897 43.2942C20.2897 42.5225 20.1393 41.9418 19.8386 41.552C19.5455 41.1545 19.0751 40.9557 18.4274 40.9557H17.3748V45.6326H18.4274Z" fill="black"/>
<path d="M25.4459 39.4357V47.1526H23.4564V39.4357H25.4459Z" fill="black"/>
<path d="M26.1094 47.1526L28.7929 39.4357H31.1756L33.8476 47.1526H31.8003L31.2797 45.4105H28.6425L28.1104 47.1526H26.1094ZM29.6373 42.1834L29.0589 44.0425H30.8633L30.3081 42.1951L29.9727 40.9791H29.9496L29.6373 42.1834Z" fill="black"/>
<path d="M41.3864 39.4357V47.1526H39.1771L36.8059 42.9785L36.2276 41.8327H36.216L36.2623 43.2591V47.1526H34.5041V39.4357H36.7134L39.0846 43.6099L39.6629 44.7557H39.6745L39.6282 43.3293V39.4357H41.3864Z" fill="black"/>
<path d="M46.004 47.2695C45.3254 47.2695 44.7201 47.1175 44.188 46.8135C43.6637 46.5095 43.255 46.0613 42.9619 45.4689C42.6689 44.8765 42.5224 44.1555 42.5224 43.3059C42.5224 42.4796 42.6766 41.7703 42.9851 41.1779C43.2935 40.5777 43.7331 40.1178 44.3037 39.7982C44.882 39.4786 45.5606 39.3188 46.3395 39.3188C47.2108 39.3188 47.9087 39.4786 48.4331 39.7982C48.9652 40.11 49.3777 40.6089 49.6707 41.2948L47.8316 42.0314C47.7314 41.6339 47.554 41.3455 47.2995 41.1662C47.045 40.9869 46.7289 40.8973 46.351 40.8973C45.7804 40.8973 45.337 41.1038 45.0208 41.517C44.7124 41.9223 44.5582 42.5147 44.5582 43.2942C44.5582 44.1204 44.7162 44.7362 45.0324 45.1416C45.3486 45.5391 45.8228 45.7379 46.4551 45.7379C46.8947 45.7379 47.261 45.6326 47.554 45.4222C47.847 45.2117 47.9935 44.8882 47.9935 44.4517V44.3348H46.2469V42.9902H49.6823V47.1526H48.329L48.248 46.2055C48.0321 46.5485 47.7352 46.8135 47.3574 47.0006C46.9872 47.1799 46.5361 47.2695 46.004 47.2695Z" fill="black"/>
<path d="M50.1757 47.1526L52.8592 39.4357H55.242L57.9139 47.1526H55.8666L55.3461 45.4105H52.7088L52.1768 47.1526H50.1757ZM53.7036 42.1834L53.1253 44.0425H54.9297L54.3745 42.1951L54.039 40.9791H54.0159L53.7036 42.1834Z" fill="black"/>
<path d="M61.5208 39.3188C62.2303 39.3188 62.8549 39.4318 63.3947 39.6579C63.9422 39.8761 64.4164 40.1996 64.8174 40.6283L63.8573 41.9262C63.5258 41.5754 63.1672 41.3143 62.7816 41.1428C62.4038 40.9635 61.9719 40.8739 61.4861 40.8739C61.062 40.8739 60.7574 40.944 60.5723 41.0843C60.3873 41.2247 60.2947 41.3961 60.2947 41.5988C60.2947 41.7625 60.368 41.9028 60.5145 42.0197C60.6687 42.1289 60.9155 42.2224 61.2548 42.3003L62.5387 42.5926C63.3021 42.7719 63.8612 43.0331 64.2159 43.376C64.5706 43.719 64.748 44.175 64.748 44.744C64.748 45.2897 64.6092 45.7535 64.3316 46.1354C64.054 46.5096 63.6723 46.7941 63.1865 46.9889C62.7006 47.176 62.1454 47.2695 61.5208 47.2695C60.7497 47.2695 60.0441 47.1448 59.4041 46.8954C58.7641 46.6382 58.2551 46.303 57.8773 45.8899L58.8373 44.5453C59.1226 44.8804 59.5082 45.161 59.994 45.3871C60.4798 45.6054 60.981 45.7145 61.4977 45.7145C62.2997 45.7145 62.7006 45.4767 62.7006 45.0013C62.7006 44.8376 62.639 44.7011 62.5156 44.592C62.3999 44.4751 62.184 44.3777 61.8678 44.2997L60.4567 43.984C60.0248 43.8905 59.6393 43.758 59.3 43.5865C58.9684 43.415 58.7062 43.1889 58.5134 42.9083C58.3207 42.6199 58.2243 42.2614 58.2243 41.8327C58.2243 41.3494 58.3554 40.9207 58.6175 40.5465C58.8797 40.1646 59.2576 39.8645 59.7511 39.6462C60.2446 39.4279 60.8345 39.3188 61.5208 39.3188Z" fill="black"/>
<path d="M75.7211 39.4357V47.1526H73.5118L71.1406 42.9785L70.5622 41.8327H70.5507L70.5969 43.2591V47.1526H68.8388V39.4357H71.048L73.4193 43.6099L73.9976 44.7557H74.0092L73.9629 43.3293V39.4357H75.7211Z" fill="black"/>
<path d="M80.6047 39.3188C81.3759 39.3188 82.039 39.4786 82.5942 39.7982C83.1572 40.11 83.589 40.5621 83.8897 41.1545C84.1905 41.7469 84.3409 42.4601 84.3409 43.2942C84.3409 44.1282 84.1905 44.8415 83.8897 45.4339C83.589 46.0263 83.1572 46.4823 82.5942 46.8019C82.039 47.1136 81.3759 47.2695 80.6047 47.2695C79.8259 47.2695 79.155 47.1136 78.5921 46.8019C78.0369 46.4823 77.6089 46.0263 77.3082 45.4339C77.0074 44.8415 76.8571 44.1282 76.8571 43.2942C76.8571 42.4601 77.0074 41.7469 77.3082 41.1545C77.6089 40.5621 78.0369 40.11 78.5921 39.7982C79.155 39.4786 79.8259 39.3188 80.6047 39.3188ZM80.6047 40.8973C80.0495 40.8973 79.6254 41.0999 79.3324 41.5053C79.0394 41.9028 78.8928 42.4991 78.8928 43.2942C78.8928 44.0893 79.0394 44.6895 79.3324 45.0948C79.6254 45.4923 80.0495 45.6911 80.6047 45.6911C81.1522 45.6911 81.5725 45.4923 81.8655 45.0948C82.1586 44.6895 82.3051 44.0893 82.3051 43.2942C82.3051 42.4991 82.1586 41.9028 81.8655 41.5053C81.5725 41.0999 81.1522 40.8973 80.6047 40.8973Z" fill="black"/>
<path d="M89.1215 39.4357C90.0314 39.4357 90.737 39.6501 91.2382 40.0788C91.7472 40.5075 92.0016 41.0844 92.0016 41.8093C92.0016 42.3861 91.8667 42.8616 91.5968 43.2357C91.3346 43.6021 90.9568 43.871 90.4632 44.0425L92.4528 47.1526H90.255L88.6241 44.3348H87.4327V47.1526H85.4779V39.4357H89.1215ZM88.8439 42.9083C89.2294 42.9083 89.5186 42.8304 89.7114 42.6745C89.9042 42.5186 90.0006 42.2692 90.0006 41.9262C90.0006 41.2792 89.615 40.9557 88.8439 40.9557H87.4327V42.9083H88.8439Z" fill="black"/>
<path d="M99.5507 39.4357V40.9908H97.0638V47.1526H95.0743V40.9908H92.5758V39.4357H99.5507Z" fill="black"/>
<path d="M102.446 39.4357V42.4874H105.361V39.4357H107.35V47.1526H105.361V44.0425H102.446V47.1526H100.457V39.4357H102.446Z" fill="black"/>
<path d="M109.608 45.1416C110.032 45.1416 110.345 45.2858 110.545 45.5742C110.753 45.8626 110.857 46.1978 110.857 46.5797C110.857 46.9305 110.78 47.2656 110.626 47.5852C110.48 47.9126 110.283 48.1971 110.036 48.4388C109.797 48.6882 109.535 48.8753 109.25 49L108.451 48.4037C108.768 48.2712 109.049 48.0919 109.296 47.8658C109.55 47.6476 109.728 47.4137 109.828 47.1643L109.77 47.1292C109.724 47.1604 109.67 47.1838 109.608 47.1994C109.554 47.215 109.477 47.2228 109.377 47.2228C109.169 47.2228 108.96 47.1448 108.752 46.9889C108.552 46.833 108.451 46.5914 108.451 46.264C108.451 45.8977 108.567 45.6209 108.798 45.4339C109.038 45.239 109.307 45.1416 109.608 45.1416Z" fill="black"/>
<path d="M118.17 47.2695C117.491 47.2695 116.886 47.1175 116.354 46.8135C115.829 46.5095 115.421 46.0613 115.128 45.4689C114.835 44.8765 114.688 44.1555 114.688 43.3059C114.688 42.4796 114.842 41.7703 115.151 41.1779C115.459 40.5777 115.899 40.1178 116.469 39.7982C117.048 39.4786 117.726 39.3188 118.505 39.3188C119.376 39.3188 120.074 39.4786 120.599 39.7982C121.131 40.11 121.543 40.6089 121.836 41.2948L119.997 42.0314C119.897 41.6339 119.72 41.3455 119.465 41.1662C119.211 40.9869 118.894 40.8973 118.517 40.8973C117.946 40.8973 117.503 41.1038 117.186 41.517C116.878 41.9223 116.724 42.5147 116.724 43.2942C116.724 44.1204 116.882 44.7362 117.198 45.1416C117.514 45.5391 117.988 45.7379 118.621 45.7379C119.06 45.7379 119.427 45.6326 119.72 45.4222C120.013 45.2117 120.159 44.8882 120.159 44.4517V44.3348H118.413V42.9902H121.848V47.1526H120.495L120.414 46.2055C120.198 46.5485 119.901 46.8135 119.523 47.0006C119.153 47.1799 118.702 47.2695 118.17 47.2695Z" fill="black"/>
<path d="M123.139 47.1526V39.4357H129.085V40.9908H125.129V42.5576H128.275V44.0191H125.129V45.5976H129.235V47.1526H123.139Z" fill="black"/>
<path d="M137.087 39.4357V47.1526H134.878L132.507 42.9785L131.929 41.8327H131.917L131.963 43.2591V47.1526H130.205V39.4357H132.414L134.786 43.6099L135.364 44.7557H135.376L135.329 43.3293V39.4357H137.087Z" fill="black"/>
<path d="M138.547 47.1526V39.4357H144.493V40.9908H140.537V42.5576H143.683V44.0191H140.537V45.5976H144.643V47.1526H138.547Z" fill="black"/>
<path d="M149.257 39.4357C150.167 39.4357 150.872 39.6501 151.373 40.0788C151.882 40.5075 152.137 41.0844 152.137 41.8093C152.137 42.3861 152.002 42.8616 151.732 43.2357C151.47 43.6021 151.092 43.871 150.598 44.0425L152.588 47.1526H150.39L148.759 44.3348H147.568V47.1526H145.613V39.4357H149.257ZM148.979 42.9083C149.365 42.9083 149.654 42.8304 149.847 42.6745C150.039 42.5186 150.136 42.2692 150.136 41.9262C150.136 41.2792 149.75 40.9557 148.979 40.9557H147.568V42.9083H148.979Z" fill="black"/>
<path d="M152.558 47.1526L155.242 39.4357H157.625L160.297 47.1526H158.249L157.729 45.4105H155.092L154.56 47.1526H152.558ZM156.086 42.1834L155.508 44.0425H157.312L156.757 42.1951L156.422 40.9791H156.399L156.086 42.1834Z" fill="black"/>
<path d="M162.943 45.5976H166.771V47.1526H160.953V39.4357H162.943V45.5976Z" fill="black"/>
<path d="M173.472 39.3188C174.181 39.3188 174.806 39.4318 175.345 39.6579C175.893 39.8761 176.367 40.1996 176.768 40.6283L175.808 41.9262C175.476 41.5754 175.118 41.3143 174.732 41.1428C174.354 40.9635 173.923 40.8739 173.437 40.8739C173.013 40.8739 172.708 40.944 172.523 41.0843C172.338 41.2247 172.245 41.3961 172.245 41.5988C172.245 41.7625 172.319 41.9028 172.465 42.0197C172.619 42.1289 172.866 42.2224 173.206 42.3003L174.489 42.5926C175.253 42.7719 175.812 43.0331 176.167 43.376C176.521 43.719 176.699 44.175 176.699 44.744C176.699 45.2897 176.56 45.7535 176.282 46.1354C176.005 46.5096 175.623 46.7941 175.137 46.9889C174.651 47.176 174.096 47.2695 173.472 47.2695C172.7 47.2695 171.995 47.1448 171.355 46.8954C170.715 46.6382 170.206 46.303 169.828 45.8899L170.788 44.5453C171.073 44.8804 171.459 45.161 171.945 45.3871C172.431 45.6054 172.932 45.7145 173.448 45.7145C174.25 45.7145 174.651 45.4767 174.651 45.0013C174.651 44.8376 174.59 44.7011 174.466 44.592C174.351 44.4751 174.135 44.3777 173.819 44.2997L172.407 43.984C171.976 43.8905 171.59 43.758 171.251 43.5865C170.919 43.415 170.657 43.1889 170.464 42.9083C170.271 42.6199 170.175 42.2614 170.175 41.8327C170.175 41.3494 170.306 40.9207 170.568 40.5465C170.83 40.1646 171.208 39.8645 171.702 39.6462C172.195 39.4279 172.785 39.3188 173.472 39.3188Z" fill="black"/>
<path d="M176.868 47.1526L179.551 39.4357H181.934L184.606 47.1526H182.559L182.038 45.4105H179.401L178.869 47.1526H176.868ZM180.396 42.1834L179.817 44.0425H181.622L181.067 42.1951L180.731 40.9791H180.708L180.396 42.1834Z" fill="black"/>
<path d="M192.145 39.4357V47.1526H189.936L187.564 42.9785L186.986 41.8327H186.975L187.021 43.2591V47.1526H185.263V39.4357H187.472L189.843 43.6099L190.421 44.7557H190.433L190.387 43.3293V39.4357H192.145Z" fill="black"/>
<path d="M200.024 39.4357V40.9908H197.538V47.1526H195.548V40.9908H193.05V39.4357H200.024Z" fill="black"/>
<path d="M204.038 39.3188C204.809 39.3188 205.472 39.4786 206.027 39.7982C206.59 40.11 207.022 40.5621 207.323 41.1545C207.624 41.7469 207.774 42.4601 207.774 43.2942C207.774 44.1282 207.624 44.8415 207.323 45.4339C207.022 46.0263 206.59 46.4823 206.027 46.8019C205.472 47.1136 204.809 47.2695 204.038 47.2695C203.259 47.2695 202.588 47.1136 202.025 46.8019C201.47 46.4823 201.042 46.0263 200.741 45.4339C200.441 44.8415 200.29 44.1282 200.29 43.2942C200.29 42.4601 200.441 41.7469 200.741 41.1545C201.042 40.5621 201.47 40.11 202.025 39.7982C202.588 39.4786 203.259 39.3188 204.038 39.3188ZM204.038 40.8973C203.483 40.8973 203.059 41.0999 202.765 41.5053C202.472 41.9028 202.326 42.4991 202.326 43.2942C202.326 44.0893 202.472 44.6895 202.765 45.0948C203.059 45.4923 203.483 45.6911 204.038 45.6911C204.585 45.6911 205.006 45.4923 205.299 45.0948C205.592 44.6895 205.738 44.0893 205.738 43.2942C205.738 42.4991 205.592 41.9028 205.299 41.5053C205.006 41.0999 204.585 40.8973 204.038 40.8973Z" fill="black"/>
<path d="M211.828 39.3188C212.537 39.3188 213.162 39.4318 213.701 39.6579C214.249 39.8761 214.723 40.1996 215.124 40.6283L214.164 41.9262C213.832 41.5754 213.474 41.3143 213.088 41.1428C212.71 40.9635 212.279 40.8739 211.793 40.8739C211.369 40.8739 211.064 40.944 210.879 41.0843C210.694 41.2247 210.601 41.3961 210.601 41.5988C210.601 41.7625 210.675 41.9028 210.821 42.0197C210.975 42.1289 211.222 42.2224 211.561 42.3003L212.845 42.5926C213.609 42.7719 214.168 43.0331 214.523 43.376C214.877 43.719 215.055 44.175 215.055 44.744C215.055 45.2897 214.916 45.7535 214.638 46.1354C214.361 46.5096 213.979 46.7941 213.493 46.9889C213.007 47.176 212.452 47.2695 211.828 47.2695C211.056 47.2695 210.351 47.1448 209.711 46.8954C209.071 46.6382 208.562 46.303 208.184 45.8899L209.144 44.5453C209.429 44.8804 209.815 45.161 210.301 45.3871C210.786 45.6054 211.288 45.7145 211.804 45.7145C212.606 45.7145 213.007 45.4767 213.007 45.0013C213.007 44.8376 212.946 44.7011 212.822 44.592C212.707 44.4751 212.491 44.3777 212.175 44.2997L210.763 43.984C210.332 43.8905 209.946 43.758 209.607 43.5865C209.275 43.415 209.013 43.1889 208.82 42.9083C208.627 42.6199 208.531 42.2614 208.531 41.8327C208.531 41.3494 208.662 40.9207 208.924 40.5465C209.186 40.1646 209.564 39.8645 210.058 39.6462C210.551 39.4279 211.141 39.3188 211.828 39.3188Z" fill="black"/>
<path d="M225.912 44.9428C225.688 45.7535 225.276 46.3459 224.674 46.72C224.081 47.0864 223.379 47.2695 222.569 47.2695C221.79 47.2695 221.12 47.1136 220.557 46.8019C220.001 46.4823 219.573 46.0263 219.273 45.4339C218.972 44.8415 218.822 44.1282 218.822 43.2942C218.822 42.4601 218.972 41.7469 219.273 41.1545C219.573 40.5621 220.001 40.11 220.557 39.7982C221.12 39.4786 221.787 39.3188 222.558 39.3188C223.352 39.3188 224.046 39.4903 224.64 39.8333C225.234 40.1762 225.627 40.7141 225.82 41.4468L224.073 42.16C223.965 41.6846 223.788 41.3572 223.541 41.1779C223.302 40.9908 222.997 40.8973 222.627 40.8973C222.072 40.8973 221.636 41.0999 221.32 41.5053C221.012 41.9106 220.857 42.5069 220.857 43.2942C220.857 44.0815 221.004 44.6778 221.297 45.0831C221.598 45.4884 222.045 45.6911 222.639 45.6911C223.009 45.6911 223.321 45.5898 223.576 45.3871C223.838 45.1766 224.015 44.857 224.108 44.4283L225.912 44.9428Z" fill="black"/>
<path d="M228.777 39.4357V47.1526H226.787V39.4357H228.777Z" fill="black"/>
<path d="M236.658 39.4357V40.9908H234.171V47.1526H232.182V40.9908H229.683V39.4357H236.658Z" fill="black"/>
<path d="M244 39.4357L241.305 44.3348V47.1526H239.315V44.3348L236.62 39.4357H238.679L239.755 41.552L240.322 42.8382L240.9 41.552L241.976 39.4357H244Z" fill="black"/>
</svg>
